<svg fill="none" height="30" viewBox="0 0 29 30" width="29" xmlns="http://www.w3.org/2000/svg">
  <path clip-rule="evenodd"
        d="M16.4653 14.7053C17.6034 14.0316 18.3667 12.7905 18.3667 11.371C18.3667 9.23309 16.6355 7.5 14.5 7.5C12.3645 7.5 10.6333 9.23309 10.6333 11.371C10.6333 12.7905 11.3966 14.0316 12.5347 14.7053C9.48553 15.563 7.25 18.3669 7.25 21.6935C7.25 22.1389 7.61066 22.5 8.05556 22.5C8.50045 22.5 8.86111 22.1389 8.86111 21.6935C8.86111 18.5758 11.3857 16.0484 14.5 16.0484C17.6143 16.0484 20.1389 18.5758 20.1389 21.6935C20.1389 22.1389 20.4995 22.5 20.9444 22.5C21.3893 22.5 21.75 22.1389 21.75 21.6935C21.75 18.3669 19.5145 15.563 16.4653 14.7053ZM16.7556 11.371C16.7556 12.6181 15.7457 13.629 14.5 13.629C13.2543 13.629 12.2444 12.6181 12.2444 11.371C12.2444 10.1239 13.2543 9.1129 14.5 9.1129C15.7457 9.1129 16.7556 10.1239 16.7556 11.371Z"
        fill="#C016FC"
        fill-rule="evenodd" />
  <path clip-rule="evenodd"
        d="M9.66671 1.25C10.3341 1.25 10.875 1.80964 10.875 2.5V3.75H13.2917V2.5C13.2917 1.80964 13.8327 1.25 14.5 1.25C15.1674 1.25 15.7084 1.80964 15.7084 2.5V3.75H18.125V2.5C18.125 1.80964 18.666 1.25 19.3334 1.25C20.0007 1.25 20.5417 1.80964 20.5417 2.5V3.75H21.75C23.7521 3.75 25.375 5.42893 25.375 7.5V8.75H26.5837C27.251 8.75 27.792 9.30964 27.792 10C27.792 10.6904 27.251 11.25 26.5837 11.25H25.375V13.75H26.5834C27.2507 13.75 27.7917 14.3096 27.7917 15C27.7917 15.6904 27.2507 16.25 26.5834 16.25H25.375V18.75H26.5837C27.251 18.75 27.792 19.3096 27.792 20C27.792 20.6904 27.251 21.25 26.5837 21.25H25.375V22.5C25.375 24.5711 23.7521 26.25 21.75 26.25H20.5417V27.5C20.5417 28.1904 20.0007 28.75 19.3334 28.75C18.666 28.75 18.125 28.1904 18.125 27.5V26.25H15.7084V27.5C15.7084 28.1904 15.1674 28.75 14.5 28.75C13.8327 28.75 13.2917 28.1904 13.2917 27.5V26.25H10.875V27.5C10.875 28.1904 10.3341 28.75 9.66671 28.75C8.99936 28.75 8.45837 28.1904 8.45837 27.5V26.25H7.25004C5.24801 26.25 3.62504 24.5711 3.62504 22.5V21.25H2.41671C1.74936 21.25 1.20837 20.6904 1.20837 20C1.20837 19.3096 1.74936 18.75 2.41671 18.75H3.62504V16.25H2.417C1.74966 16.25 1.20867 15.6904 1.20867 15C1.20867 14.3096 1.74966 13.75 2.417 13.75H3.62504V11.25H2.41671C1.74936 11.25 1.20837 10.6904 1.20837 10C1.20837 9.30964 1.74936 8.75 2.41671 8.75H3.62504V7.5C3.62504 5.42893 5.24801 3.75 7.25004 3.75H8.45837V2.5C8.45837 1.80964 8.99936 1.25 9.66671 1.25ZM6.04171 22.5C6.04171 23.1904 6.5827 23.75 7.25004 23.75H21.75C22.4174 23.75 22.9584 23.1904 22.9584 22.5V7.5C22.9584 6.80964 22.4174 6.25 21.75 6.25H7.25004C6.5827 6.25 6.04171 6.80964 6.04171 7.5V22.5Z"
        fill="#C016FC"
        fill-rule="evenodd" />
</svg>
