<svg fill="none" height="24" viewBox="0 0 24 24" width="24" xmlns="http://www.w3.org/2000/svg">
  <path clip-rule="evenodd"
        d="M5.25 2.25C3.59315 2.25 2.25 3.59315 2.25 5.25V18.75C2.25 20.4069 3.59315 21.75 5.25 21.75H18.75C20.4069 21.75 21.75 20.4069 21.75 18.75V5.25C21.75 3.59315 20.4069 2.25 18.75 2.25H5.25ZM18.75 4.125H5.25C4.62868 4.125 4.125 4.62868 4.125 5.25V6.5625H19.875V5.25C19.875 4.62868 19.3713 4.125 18.75 4.125ZM4.125 18.75V8.4375H8.0625L8.0625 19.875H5.25C4.62868 19.875 4.125 19.3713 4.125 18.75ZM9.9375 19.875H18.75C19.3713 19.875 19.875 19.3713 19.875 18.75V8.4375H9.9375L9.9375 19.875Z"
        fill="#C016FC"
        fill-rule="evenodd" />
</svg>
