<svg fill="none" height="24" viewBox="0 0 24 24" width="24" xmlns="http://www.w3.org/2000/svg">
  <path clip-rule="evenodd"
        d="M10.3076 2.20403C11.3427 1.55552 12.6573 1.55552 13.6923 2.20404L21.4977 7.09446C21.7805 7.27161 21.9477 7.58566 21.937 7.91913C21.9353 7.96995 21.9296 8.02006 21.92 8.06904C21.9315 8.12759 21.9375 8.1881 21.9375 8.25V16.4822C21.9434 16.8106 21.7763 17.1325 21.4723 17.3098L13.6061 21.8985C12.6136 22.4774 11.3863 22.4774 10.3939 21.8985L2.52759 17.3098C2.22369 17.1325 2.05654 16.8106 2.06247 16.4822V8.25C2.06247 8.1881 2.06847 8.12759 2.07992 8.06905C2.07033 8.02006 2.0646 7.96995 2.06296 7.91913C2.0522 7.58566 2.21948 7.27161 2.50221 7.09446L10.3076 2.20403ZM12.9375 13.3091L20.0625 9.46078V15.9615L12.9375 20.1178V13.3091ZM11.0625 13.3091L3.93747 9.46078V15.9615L11.0625 20.1178V13.3091ZM12.6968 3.79293C12.2706 3.52589 11.7293 3.52589 11.3031 3.79293L4.86153 7.82887L12 11.6845L19.1384 7.82887L12.6968 3.79293Z"
        fill="#C016FC"
        fill-rule="evenodd" />
</svg>
