<svg fill="none" height="28" viewBox="0 0 19 22" width="26" xmlns="http://www.w3.org/2000/svg">
  <path clip-rule="evenodd"
        d="M9 19.3125C12.935 19.3125 16.125 16.1225 16.125 12.1875C16.125 8.25243 12.935 5.06246 9 5.06246C5.06497 5.06246 1.875 8.25243 1.875 12.1875C1.875 16.1225 5.06497 19.3125 9 19.3125ZM9 21.1875C13.9706 21.1875 18 17.158 18 12.1875C18 7.2169 13.9706 3.18746 9 3.18746C4.02944 3.18746 0 7.2169 0 12.1875C0 17.158 4.02944 21.1875 9 21.1875Z"
        fill="#C016FC"
        fill-rule="evenodd" />
  <path clip-rule="evenodd"
        d="M12.0794 1.5C12.0794 2.01777 11.6596 2.4375 11.1419 2.4375H6.64187C6.1241 2.4375 5.70437 2.01777 5.70437 1.5C5.70437 0.982233 6.1241 0.5625 6.64187 0.5625H11.1419C11.6596 0.5625 12.0794 0.982233 12.0794 1.5Z"
        fill="#C016FC"
        fill-rule="evenodd" />
  <path clip-rule="evenodd"
        d="M17 3.18746L17.75 3.93746C18.1161 4.30358 18.1161 4.89717 17.75 5.26329C17.3839 5.62941 16.7903 5.62941 16.4242 5.26329L15.6742 4.51329C15.3081 4.14717 15.3081 3.55358 15.6742 3.18746C16.0403 2.82135 16.6339 2.82135 17 3.18746Z"
        fill="#C016FC"
        fill-rule="evenodd" />
  <path clip-rule="evenodd"
        d="M10.2709 6.29015C10.5219 6.38771 10.6671 6.64099 10.6185 6.89667L9.95071 10.4096H12.4286C12.6409 10.4096 12.8357 10.5225 12.9344 10.7029C13.0332 10.8832 13.0196 11.1011 12.8991 11.2689L7.6976 18.5127C7.54135 18.7303 7.24555 18.81 6.99407 18.7023C6.74258 18.5946 6.60697 18.3301 6.67151 18.0732L7.74934 13.7839H5.57143C5.36056 13.7839 5.16684 13.6725 5.06745 13.4941C4.96807 13.3157 4.97918 13.0992 5.09636 12.931L9.5813 6.49363C9.73183 6.27756 10.0198 6.19259 10.2709 6.29015ZM6.64072 12.6875H8.4749C8.65002 12.6875 8.81547 12.7645 8.92383 12.8965C9.03218 13.0285 9.07146 13.2009 9.03042 13.3642L8.50482 15.4559L11.341 11.5061H9.26564C9.09614 11.5061 8.93539 11.4339 8.82682 11.309C8.71825 11.1841 8.67307 11.0195 8.70348 10.8595L8.99963 9.30163L6.64072 12.6875Z"
        fill="#C016FC"
        fill-rule="evenodd" />
</svg>
